<svg width="154" height="153" viewBox="0 0 154 153" fill="none" xmlns="http://www.w3.org/2000/svg">
<path d="M139.031 111.959C142.403 105.104 144.083 97.5418 143.932 89.9043C143.78 82.2668 141.801 74.7768 138.159 68.0616C134.518 61.3464 129.32 55.6014 123.002 51.3079C116.684 47.0143 109.429 44.2971 101.845 43.3839C99.3293 37.5204 95.6659 32.2197 91.0703 27.7939C86.4746 23.3682 81.0397 19.9071 75.0857 17.6143C69.1317 15.3216 62.779 14.2438 56.402 14.4443C50.0249 14.6448 43.7525 16.1195 37.9543 18.7817C32.156 21.4439 26.9492 25.2396 22.6407 29.9453C18.3321 34.6509 15.009 40.1713 12.867 46.1812C10.725 52.1911 9.80745 58.5689 10.1685 64.9389C10.5296 71.3088 12.1619 77.5421 14.9693 83.2714L10.3912 99.3006C9.98269 100.735 9.96479 102.252 10.3394 103.695C10.7139 105.138 11.4674 106.455 12.5217 107.51C13.5761 108.564 14.893 109.317 16.3363 109.692C17.7795 110.066 19.2966 110.049 20.7307 109.64L36.7598 105.062C41.5967 107.437 46.7996 108.978 52.1495 109.622C54.6996 115.597 58.4406 120.989 63.144 125.47C67.8475 129.951 73.4147 133.427 79.5059 135.684C85.5972 137.942 92.0846 138.935 98.5723 138.602C105.06 138.27 111.412 136.619 117.24 133.749L133.269 138.328C134.703 138.736 136.22 138.754 137.664 138.379C139.107 138.005 140.424 137.251 141.478 136.197C142.533 135.143 143.286 133.826 143.661 132.382C144.035 130.939 144.017 129.422 143.609 127.988L139.031 111.959ZM37.2738 95.1648C36.8294 95.1648 36.3871 95.2252 35.9589 95.3441L20.1748 99.8564L24.6871 84.0723C25.0253 82.8698 24.8794 81.5827 24.2807 80.4864C19.8845 72.4152 18.5438 63.0302 20.5045 54.0509C22.4652 45.0717 27.5958 37.0997 34.9563 31.5957C42.3168 26.0917 51.4141 23.4243 60.5813 24.0824C69.7485 24.7404 78.3716 28.6798 84.8705 35.1787C91.3694 41.6775 95.3088 50.3006 95.9668 59.4679C96.6249 68.6351 93.9575 77.7324 88.4535 85.0929C82.9495 92.4534 74.9775 97.584 65.9983 99.5447C57.019 101.505 47.634 100.165 39.5628 95.7684C38.8631 95.3771 38.0755 95.1694 37.2738 95.1648ZM129.313 112.76L133.825 128.544L118.041 124.032C116.839 123.693 115.551 123.839 114.455 124.438C105.641 129.233 95.2977 130.377 85.6495 127.622C76.0013 124.868 67.8198 118.437 62.8654 109.712C69.4125 109.03 75.748 107.002 81.4744 103.756C87.2008 100.51 92.1946 96.1159 96.1425 90.8487C100.09 85.5816 102.907 79.5553 104.416 73.1482C105.925 66.741 106.093 60.0911 104.911 53.6157C110.64 54.966 115.98 57.6202 120.516 61.3719C125.051 65.1236 128.66 69.8714 131.061 75.2458C133.461 80.6203 134.589 86.4762 134.357 92.3578C134.124 98.2394 132.537 103.988 129.719 109.156C129.116 110.257 128.97 111.552 129.313 112.76Z" fill="#70B0FF"/>
</svg>
