<svg width="31" height="23" viewBox="0 0 31 23" fill="none" xmlns="http://www.w3.org/2000/svg">
<path d="M29.5 15.5H24.4438C24.4807 15.168 24.4994 14.8341 24.5 14.5C24.5 12.1131 23.5518 9.8239 21.864 8.13607C20.1761 6.44824 17.8869 5.50003 15.5 5.50003C13.1131 5.50003 10.8239 6.44824 9.13604 8.13607C7.44821 9.8239 6.5 12.1131 6.5 14.5C6.50056 14.8341 6.51934 15.168 6.55625 15.5H1.5C1.23478 15.5 0.98043 15.6054 0.792893 15.7929C0.605357 15.9805 0.5 16.2348 0.5 16.5C0.5 16.7652 0.605357 17.0196 0.792893 17.2071C0.98043 17.3947 1.23478 17.5 1.5 17.5H29.5C29.7652 17.5 30.0196 17.3947 30.2071 17.2071C30.3946 17.0196 30.5 16.7652 30.5 16.5C30.5 16.2348 30.3946 15.9805 30.2071 15.7929C30.0196 15.6054 29.7652 15.5 29.5 15.5ZM8.5 14.5C8.49816 13.5374 8.69489 12.5848 9.07788 11.7016C9.46087 10.8185 10.0219 10.0238 10.7259 9.36729C11.4299 8.71077 12.2618 8.20651 13.1695 7.88603C14.0772 7.56554 15.0412 7.43571 16.0013 7.50466C16.9615 7.5736 17.8971 7.83984 18.7497 8.28673C19.6023 8.73362 20.3536 9.35155 20.9565 10.1019C21.5595 10.8523 22.0012 11.719 22.2541 12.6478C22.507 13.5766 22.5656 14.5476 22.4263 15.5H8.57375C8.52535 15.1689 8.5007 14.8347 8.5 14.5ZM26.5 21.5C26.5 21.7652 26.3946 22.0196 26.2071 22.2071C26.0196 22.3947 25.7652 22.5 25.5 22.5H5.5C5.23478 22.5 4.98043 22.3947 4.79289 22.2071C4.60536 22.0196 4.5 21.7652 4.5 21.5C4.5 21.2348 4.60536 20.9805 4.79289 20.7929C4.98043 20.6054 5.23478 20.5 5.5 20.5H25.5C25.7652 20.5 26.0196 20.6054 26.2071 20.7929C26.3946 20.9805 26.5 21.2348 26.5 21.5ZM8.605 1.94753C8.48632 1.71016 8.46679 1.43537 8.55071 1.1836C8.63463 0.931833 8.81513 0.723715 9.0525 0.605031C9.28987 0.486347 9.56466 0.466818 9.81643 0.55074C10.0682 0.634663 10.2763 0.815162 10.395 1.05253L11.395 3.05253C11.4538 3.17006 11.4888 3.29802 11.4981 3.4291C11.5074 3.56017 11.4908 3.6918 11.4493 3.81646C11.4077 3.94112 11.342 4.05638 11.2559 4.15565C11.1698 4.25492 11.065 4.33626 10.9475 4.39503C10.83 4.4538 10.702 4.48884 10.5709 4.49815C10.4399 4.50747 10.3082 4.49088 10.1836 4.44932C10.0589 4.40777 9.94365 4.34207 9.84438 4.25597C9.74511 4.16987 9.66377 4.06506 9.605 3.94753L8.605 1.94753ZM1.605 8.05253C1.66381 7.93505 1.7452 7.8303 1.84451 7.74429C1.94382 7.65827 2.05911 7.59267 2.18378 7.55122C2.30846 7.50978 2.44008 7.49331 2.57112 7.50276C2.70216 7.51221 2.83006 7.54738 2.9475 7.60628L4.9475 8.60628C5.1847 8.72497 5.36504 8.93302 5.44885 9.18467C5.53265 9.43632 5.51306 9.71095 5.39437 9.94816C5.27569 10.1854 5.06764 10.3657 4.81599 10.4495C4.56434 10.5333 4.2897 10.5137 4.0525 10.395L2.0525 9.39503C1.93491 9.33633 1.83004 9.25502 1.7439 9.15576C1.65775 9.0565 1.59202 8.94123 1.55046 8.81654C1.5089 8.69186 1.49232 8.56021 1.50168 8.42911C1.51104 8.29801 1.54615 8.17005 1.605 8.05253ZM25.605 9.94753C25.4865 9.71032 25.4671 9.43577 25.551 9.18425C25.635 8.93273 25.8153 8.72484 26.0525 8.60628L28.0525 7.60628C28.17 7.54751 28.2978 7.51246 28.4288 7.50311C28.5598 7.49376 28.6914 7.51031 28.816 7.55181C28.9406 7.5933 29.0558 7.65894 29.155 7.74496C29.2543 7.83098 29.3356 7.93571 29.3944 8.05316C29.4531 8.17061 29.4882 8.29848 29.4975 8.42948C29.5069 8.56048 29.4903 8.69204 29.4488 8.81664C29.4074 8.94125 29.3417 9.05646 29.2557 9.1557C29.1697 9.25494 29.065 9.33626 28.9475 9.39503L26.9475 10.395C26.83 10.4539 26.702 10.489 26.5709 10.4984C26.4398 10.5077 26.3082 10.4911 26.1835 10.4496C26.0588 10.408 25.9435 10.3423 25.8443 10.2561C25.745 10.17 25.6637 10.0651 25.605 9.94753ZM19.605 3.05253L20.605 1.05253C20.7237 0.815162 20.9318 0.634663 21.1836 0.55074C21.4353 0.466818 21.7101 0.486347 21.9475 0.605031C22.1849 0.723715 22.3654 0.931833 22.4493 1.1836C22.5332 1.43537 22.5137 1.71016 22.395 1.94753L21.395 3.94753C21.2763 4.1849 21.0682 4.3654 20.8164 4.44932C20.5647 4.53324 20.2899 4.51372 20.0525 4.39503C19.8151 4.27635 19.6346 4.06823 19.5507 3.81646C19.4668 3.56469 19.4863 3.2899 19.605 3.05253Z" fill="white"/>
</svg>
