<svg width="150" height="151" viewBox="0 0 150 151" fill="none" xmlns="http://www.w3.org/2000/svg">
<path d="M121.875 34.1211V19.25C121.875 18.0068 121.381 16.8145 120.502 15.9354C119.623 15.0564 118.431 14.5625 117.188 14.5625C115.944 14.5625 114.752 15.0564 113.873 15.9354C112.994 16.8145 112.5 18.0068 112.5 19.25V34.1211C109.759 35.0902 107.386 36.885 105.707 39.2586C104.028 41.6321 103.126 44.4677 103.125 47.375V72.1074L79.6875 58.7188V42.6875C79.6875 41.4443 79.1936 40.252 78.3146 39.3729C77.4355 38.4939 76.2432 38 75 38C73.7568 38 72.5645 38.4939 71.6854 39.3729C70.8064 40.252 70.3125 41.4443 70.3125 42.6875V58.7188L46.875 72.1074V47.375C46.8741 44.4677 45.9721 41.6321 44.2932 39.2586C42.6143 36.885 40.241 35.0902 37.5 34.1211V19.25C37.5 18.0068 37.0061 16.8145 36.1271 15.9354C35.248 15.0564 34.0557 14.5625 32.8125 14.5625C31.5693 14.5625 30.377 15.0564 29.4979 15.9354C28.6189 16.8145 28.125 18.0068 28.125 19.25V34.1211C25.384 35.0902 23.0107 36.885 21.3318 39.2586C19.6529 41.6321 18.7509 44.4677 18.75 47.375V127.062C18.75 128.306 19.2439 129.498 20.1229 130.377C21.002 131.256 22.1943 131.75 23.4375 131.75H65.625C66.8682 131.75 68.0605 131.256 68.9396 130.377C69.8186 129.498 70.3125 128.306 70.3125 127.062V103.625C70.3125 102.382 70.8064 101.19 71.6854 100.31C72.5645 99.4314 73.7568 98.9375 75 98.9375C76.2432 98.9375 77.4355 99.4314 78.3146 100.31C79.1936 101.19 79.6875 102.382 79.6875 103.625V127.062C79.6875 128.306 80.1814 129.498 81.0604 130.377C81.9395 131.256 83.1318 131.75 84.375 131.75H126.562C127.806 131.75 128.998 131.256 129.877 130.377C130.756 129.498 131.25 128.306 131.25 127.062V47.375C131.249 44.4677 130.347 41.6321 128.668 39.2586C126.989 36.885 124.616 35.0902 121.875 34.1211ZM117.188 42.6875C118.431 42.6875 119.623 43.1814 120.502 44.0604C121.381 44.9395 121.875 46.1318 121.875 47.375V61.4375H112.5V47.375C112.5 46.1318 112.994 44.9395 113.873 44.0604C114.752 43.1814 115.944 42.6875 117.188 42.6875ZM32.8125 42.6875C34.0557 42.6875 35.248 43.1814 36.1271 44.0604C37.0061 44.9395 37.5 46.1318 37.5 47.375V61.4375H28.125V47.375C28.125 46.1318 28.6189 44.9395 29.4979 44.0604C30.377 43.1814 31.5693 42.6875 32.8125 42.6875ZM28.125 70.8125H37.5V122.375H28.125V70.8125ZM75 89.5625C71.2704 89.5625 67.6935 91.0441 65.0563 93.6813C62.4191 96.3185 60.9375 99.8954 60.9375 103.625V122.375H46.875V82.9062L75 66.834L103.125 82.9062V122.375H89.0625V103.625C89.0625 99.8954 87.5809 96.3185 84.9437 93.6813C82.3065 91.0441 78.7296 89.5625 75 89.5625ZM112.5 122.375V70.8125H121.875V122.375H112.5Z" fill="#70B0FF"/>
</svg>
