<svg width="150" height="151" viewBox="0 0 150 151" fill="none" xmlns="http://www.w3.org/2000/svg">
<path d="M135.697 53.3105C102.797 20.4219 47.2031 20.4219 14.3028 53.3105C2.584 65.0293 1.459 82.3086 11.5547 95.3281C12.4322 96.4532 13.555 97.3632 14.8375 97.9887C16.1199 98.6142 17.5282 98.9387 18.9551 98.9375C20.1077 98.9381 21.2504 98.7235 22.3242 98.3047L51.0352 88.127L51.2051 88.0625C52.6542 87.4829 53.9356 86.5508 54.9333 85.3506C55.9309 84.1503 56.6131 82.7201 56.918 81.1895L60.375 63.8926C69.8009 60.6342 80.0442 60.6115 89.4844 63.8281L93.1231 81.2598C93.4386 82.7736 94.1238 84.1859 95.1175 85.3708C96.1112 86.5557 97.3826 87.4764 98.8184 88.0508L98.9883 88.1152L127.699 98.3047C129.575 99.0312 131.634 99.1352 133.574 98.6013C135.513 98.0674 137.229 96.924 138.469 95.3399C148.541 82.3086 147.41 65.0293 135.697 53.3105ZM131.057 89.5625L130.881 89.4922L102.275 79.3379L98.6367 61.9121C98.3065 60.3353 97.5756 58.8702 96.5144 57.6581C95.4531 56.446 94.0975 55.5279 92.5781 54.9922C81.1153 51.0676 68.6685 51.0945 57.2227 55.0684C55.6916 55.6154 54.3291 56.5512 53.2689 57.7839C52.2088 59.0166 51.4875 60.5039 51.1758 62.0996L47.7188 79.3906L19.1192 89.4805C19.0606 89.4805 19.0196 89.5566 18.961 89.5801C11.7363 80.2578 12.5156 68.3516 20.9297 59.9434C35.5781 45.2949 55.2949 37.9531 75 37.9531C94.7051 37.9531 114.416 45.2832 129.07 59.9434C137.467 68.3516 138.281 80.2578 131.057 89.5625ZM131.244 117.688C131.244 118.931 130.75 120.123 129.871 121.002C128.992 121.881 127.8 122.375 126.557 122.375H23.4375C22.1943 122.375 21.002 121.881 20.123 121.002C19.2439 120.123 18.75 118.931 18.75 117.688C18.75 116.444 19.2439 115.252 20.123 114.373C21.002 113.494 22.1943 113 23.4375 113H126.563C127.806 113 128.998 113.494 129.877 114.373C130.756 115.252 131.25 116.444 131.25 117.688H131.244Z" fill="#70B0FF"/>
</svg>
